<?xml version="1.0" ?><svg height="16" shape-rendering="crispEdges" version="1.1" width="16" xmlns="http://www.w3.org/2000/svg"><rect fill="#1769FF" height="1" width="1" x="2" y="2"/><rect fill="#1769FF" height="1" width="1" x="3" y="2"/><rect fill="#1769FF" height="1" width="1" x="4" y="2"/><rect fill="#1769FF" height="1" width="1" x="5" y="2"/><rect fill="#1769FF" height="1" width="1" x="6" y="2"/><rect fill="#1769FF" height="1" width="1" x="2" y="3"/><rect fill="#1769FF" height="1" width="1" x="6" y="3"/><rect fill="#1769FF" height="1" width="1" x="9" y="3"/><rect fill="#1769FF" height="1" width="1" x="10" y="3"/><rect fill="#1769FF" height="1" width="1" x="11" y="3"/><rect fill="#1769FF" height="1" width="1" x="12" y="3"/><rect fill="#1769FF" height="1" width="1" x="13" y="3"/><rect fill="#1769FF" height="1" width="1" x="2" y="4"/><rect fill="#1769FF" height="1" width="1" x="6" y="4"/><rect fill="#1769FF" height="1" width="1" x="9" y="4"/><rect fill="#1769FF" height="1" width="1" x="13" y="4"/><rect fill="#1769FF" height="1" width="1" x="2" y="5"/><rect fill="#1769FF" height="1" width="1" x="6" y="5"/><rect fill="#1769FF" height="1" width="1" x="9" y="5"/><rect fill="#1769FF" height="1" width="1" x="10" y="5"/><rect fill="#1769FF" height="1" width="1" x="11" y="5"/><rect fill="#1769FF" height="1" width="1" x="12" y="5"/><rect fill="#1769FF" height="1" width="1" x="13" y="5"/><rect fill="#1769FF" height="1" width="1" x="2" y="6"/><rect fill="#1769FF" height="1" width="1" x="3" y="6"/><rect fill="#1769FF" height="1" width="1" x="4" y="6"/><rect fill="#1769FF" height="1" width="1" x="9" y="6"/><rect fill="#1769FF" height="1" width="1" x="13" y="6"/><rect fill="#1769FF" height="1" width="1" x="2" y="7"/><rect fill="#1769FF" height="1" width="1" x="6" y="7"/><rect fill="#1769FF" height="1" width="1" x="9" y="7"/><rect fill="#1769FF" height="1" width="1" x="13" y="7"/><rect fill="#1769FF" height="1" width="1" x="2" y="8"/><rect fill="#1769FF" height="1" width="1" x="6" y="8"/><rect fill="#1769FF" height="1" width="1" x="9" y="8"/><rect fill="#1769FF" height="1" width="1" x="10" y="8"/><rect fill="#1769FF" height="1" width="1" x="11" y="8"/><rect fill="#1769FF" height="1" width="1" x="12" y="8"/><rect fill="#1769FF" height="1" width="1" x="13" y="8"/><rect fill="#1769FF" height="1" width="1" x="2" y="9"/><rect fill="#1769FF" height="1" width="1" x="3" y="9"/><rect fill="#1769FF" height="1" width="1" x="4" y="9"/><rect fill="#1769FF" height="1" width="1" x="5" y="9"/><rect fill="#1769FF" height="1" width="1" x="6" y="9"/></svg>